<svg viewBox="0 0 82 90" fill="none" xmlns="http://www.w3.org/2000/svg">
<path d="M68.8722 45.829H66.1522C66.1082 45.8321 66.0667 45.851 66.0354 45.8822C66.0042 45.9135 65.9853 45.955 65.9822 45.999V54.629C65.3882 54.799 64.7922 54.884 64.1132 54.884C62.3282 54.884 61.9032 54.332 61.9032 51.951V45.999C61.9002 45.955 61.8813 45.9135 61.8501 45.8822C61.8188 45.851 61.7773 45.8321 61.7332 45.829H59.0152C58.9712 45.8321 58.9297 45.851 58.8984 45.8822C58.8672 45.9135 58.8483 45.955 58.8452 45.999V52.249C58.8452 56.159 60.1622 57.648 63.5182 57.648C65.4302 57.648 67.5972 57.138 68.8722 56.67C68.9142 56.627 68.9562 56.585 68.9562 56.542V46C69.0412 45.915 68.9562 45.83 68.8722 45.83V45.829ZM11.2592 45.872H8.49724C8.41224 45.872 8.37024 45.914 8.37024 45.999C7.94524 47.699 7.05324 50.59 5.86324 53.609L3.10224 45.957C3.05924 45.914 3.01724 45.872 2.97424 45.872H0.170242C0.127242 45.872 0.0852422 45.914 0.0422422 45.957C0.000242189 45.999 0.000242189 46.042 0.0422422 46.084L4.20624 57.478C3.83645 58.2567 3.43954 59.0222 3.01624 59.773C2.71924 60.283 2.46424 60.793 2.20924 61.346C2.16724 61.389 2.16724 61.431 2.20924 61.474C2.25224 61.516 2.29424 61.559 2.33724 61.559H5.35324C5.39624 61.559 5.48124 61.516 5.48124 61.474C6.1084 60.2492 6.68947 59.0014 7.22324 57.733C9.00724 53.566 10.4092 49.655 11.4722 46.084C11.4722 46.042 11.4722 45.999 11.4292 45.957C11.3442 45.872 11.3022 45.872 11.2592 45.872ZM21.1592 54.629C21.1578 54.607 21.1484 54.5862 21.1328 54.5705C21.1171 54.5549 21.0963 54.5455 21.0742 54.544H20.9462C20.2662 54.799 19.0342 54.969 18.1842 54.969C16.2732 54.969 15.3802 54.459 15.3802 51.569C15.3802 49.23 15.6782 48.167 18.1842 48.167C18.9072 48.167 19.5442 48.252 20.3942 48.507C20.4792 48.507 20.5212 48.507 20.5642 48.422L21.6682 46.212V46.084C21.6668 46.062 21.6574 46.0412 21.6418 46.0255C21.6261 46.0099 21.6053 46.0005 21.5832 45.999C20.4122 45.6432 19.1961 45.4569 17.9722 45.446C14.0212 45.446 12.2362 47.317 12.2362 51.526C12.2362 55.777 14.0212 57.69 17.9722 57.69C18.9492 57.69 20.9462 57.478 21.8812 57.095C21.9662 57.052 22.0082 56.967 21.9662 56.882L21.1592 54.629ZM47.0332 45.872H44.2722C44.1872 45.872 44.1442 45.914 44.1442 45.999C43.7192 47.742 42.8272 50.59 41.6372 53.609L38.8762 45.957C38.8332 45.914 38.7912 45.872 38.7482 45.872H35.9442C35.9022 45.872 35.8592 45.914 35.8172 45.957C35.7742 45.999 35.7742 46.042 35.8172 46.084L39.9802 57.478C39.6105 58.2567 39.2135 59.0222 38.7902 59.773C38.4932 60.283 38.2382 60.793 37.9832 61.346C37.9412 61.389 37.9412 61.431 37.9832 61.474C38.0262 61.516 38.0682 61.559 38.1112 61.559H41.1272C41.1702 61.559 41.2552 61.516 41.2552 61.474C41.8824 60.2492 42.4635 59.0014 42.9972 57.733C44.7392 53.566 46.1832 49.655 47.2462 46.084C47.2462 46.042 47.2462 45.999 47.2032 45.957C47.1182 45.872 47.0762 45.872 47.0332 45.872ZM57.2302 45.829H49.2002C49.1562 45.8321 49.1147 45.851 49.0834 45.8822C49.0522 45.9135 49.0333 45.955 49.0302 45.999V57.18C49.0302 57.265 49.1152 57.35 49.2002 57.35H51.9202C52.0042 57.35 52.0902 57.265 52.0902 57.18V48.507H56.2952C56.3382 48.507 56.4232 48.465 56.4232 48.422C56.7632 47.657 57.0602 46.849 57.4002 46.042V45.914C57.3152 45.872 57.2732 45.829 57.2302 45.829Z" fill="#232323"/>
<path d="M14.488 28.654C10.579 28.654 9.05 30.354 9.05 34.648C9.05 39.027 10.58 40.728 14.488 40.728C18.439 40.728 19.968 39.027 19.968 34.648C19.968 30.354 18.439 28.654 14.488 28.654ZM14.488 38.262C12.704 38.262 12.151 37.794 12.151 34.733C12.151 31.503 12.746 31.205 14.488 31.205C16.273 31.205 16.868 31.502 16.868 34.733C16.868 37.752 16.315 38.262 14.488 38.262ZM30.846 37.794C30.8446 37.7719 30.8352 37.7511 30.8195 37.7354C30.8039 37.7198 30.7831 37.7104 30.761 37.709H30.633C29.953 37.964 28.721 38.134 27.872 38.134C25.96 38.134 25.067 37.624 25.067 34.734C25.067 32.394 25.322 31.332 27.872 31.332C28.594 31.332 29.232 31.417 30.081 31.672C30.166 31.672 30.208 31.672 30.251 31.587L31.355 29.377V29.249C31.3536 29.2269 31.3442 29.2061 31.3285 29.1904C31.3129 29.1748 31.2921 29.1654 31.27 29.164C30.0992 28.8082 28.8836 28.622 27.66 28.611C23.708 28.611 21.923 30.481 21.923 34.691C21.923 38.941 23.708 40.855 27.659 40.855C28.636 40.855 30.633 40.642 31.568 40.26C31.653 40.217 31.695 40.132 31.653 40.047L30.846 37.794ZM0.17 28.994C0.125914 28.997 0.0844148 29.0159 0.0531673 29.0471C0.0219199 29.0784 0.00303488 29.1199 0 29.164V40.344C0 40.43 0.0850001 40.514 0.17 40.514H2.89C2.974 40.514 3.06 40.43 3.06 40.344V31.672H7.265C7.308 31.672 7.393 31.63 7.393 31.587C7.733 30.822 8.03 30.014 8.37 29.207V29.079C8.327 29.036 8.285 28.994 8.242 28.994H0.17Z" fill="current"/>
<path fill-rule="evenodd" clip-rule="evenodd" d="M81.5749 56.16V55.99C81.5749 55.905 81.5749 55.777 81.6179 55.692C81.7449 54.119 81.8299 52.206 81.9149 49.995V49.825L81.9999 45.064C81.9999 43.406 81.9579 41.79 81.9149 40.302V40.132L81.6179 34.436C81.6179 34.35 81.6179 34.223 81.5749 34.138V33.968C81.5749 33.798 81.5329 33.67 81.5329 33.5V33.33C81.4049 31.672 81.3199 30.652 81.2779 30.567C81.2779 30.397 81.2349 30.227 81.2349 30.099V29.972C81.1988 29.685 81.1419 29.4009 81.0649 29.122C81.0649 29.079 81.0649 29.036 81.0229 28.994C80.3009 25.55 78.3889 21.767 76.0089 18.918C75.0749 17.813 74.0969 16.835 73.0779 16.07C69.2394 13.2397 65.2538 10.6144 61.1379 8.205C54.8929 4.506 49.2849 1.955 48.5629 1.615C48.5199 1.615 48.5199 1.573 48.5199 1.573C46.8629 0.85 44.8659 0.34 42.6999 0.128C42.2749 0.085 41.8499 0.043 41.4249 0.043C41.0419 0.043 40.6599 0 40.2779 0H39.6829C36.7509 0.043 34.0749 0.595 31.9499 1.573C31.6099 1.701 25.9599 4.293 19.5439 8.035L19.2889 8.162C15.1894 10.6123 11.2054 13.2512 7.34994 16.07C5.73594 17.26 4.29094 18.79 2.97394 20.746C2.67694 21.214 2.67694 22.319 3.95094 22.319H7.22294C8.62494 22.319 8.96494 21.469 10.5369 20.321C12.2789 19.046 15.7199 16.495 22.0079 12.754C26.5539 10.076 30.8029 7.992 32.8419 7.014C32.8849 7.014 32.9269 6.972 32.9699 6.972C32.9699 6.972 33.0119 6.972 33.0119 6.93C33.0119 6.93 33.0549 6.93 33.0549 6.887C33.0969 6.887 33.1399 6.845 33.1399 6.845C33.1819 6.845 33.2249 6.802 33.2669 6.802C33.7769 6.547 34.1169 6.419 34.1169 6.419C35.5619 5.782 37.6009 5.357 39.7669 5.314H40.6169C41.2549 5.314 41.8919 5.357 42.4869 5.442C43.8039 5.612 44.9939 5.867 45.9709 6.292C46.0559 6.334 46.1829 6.377 46.2679 6.419C50.4179 8.34982 54.4732 10.4779 58.4199 12.796C62.3677 15.1254 66.1962 17.6512 69.8909 20.364C70.6979 20.959 71.5059 21.809 72.2709 22.744C74.1819 25.21 75.7539 28.569 76.0089 31.162C76.0089 31.205 76.1369 32.225 76.2639 33.968C76.2639 34.095 76.2639 34.18 76.3069 34.308V34.563C76.3069 34.733 76.3489 34.861 76.3489 35.031V35.201C76.3489 35.286 76.3489 35.413 76.3919 35.498C76.3919 35.711 76.4339 35.923 76.4339 36.136C76.4339 36.264 76.4339 36.391 76.4769 36.519V36.604C76.4769 36.774 76.4769 36.901 76.5189 37.071V37.411C76.8059 42.481 76.8059 47.561 76.5189 52.631V52.971C76.5189 53.141 76.5189 53.269 76.4769 53.439V53.524C76.4769 53.651 76.4769 53.779 76.4339 53.906C76.4339 54.119 76.3919 54.332 76.3919 54.544C76.3919 54.672 76.3919 54.757 76.3489 54.842V55.012C76.3489 55.182 76.3069 55.309 76.3069 55.479V55.735C76.3069 55.862 76.3069 55.99 76.2639 56.075C76.1369 57.818 76.0089 58.88 76.0089 58.88C75.7539 61.474 74.1819 64.832 72.2699 67.298C71.5059 68.276 70.6979 69.084 69.8909 69.678C69.8489 69.678 68.7439 70.529 66.9169 71.804C60.441 76.2973 53.5892 80.2232 46.4379 83.538L46.2679 83.623C46.1829 83.666 46.0559 83.708 45.9709 83.751C44.9939 84.133 43.8039 84.431 42.4869 84.601C41.8919 84.686 41.2549 84.728 40.6169 84.728H39.7669C37.6009 84.686 35.5619 84.303 34.1169 83.623C34.1169 83.623 33.8199 83.496 33.2669 83.24C33.2249 83.198 33.1399 83.198 33.0969 83.155C33.0549 83.113 33.0119 83.113 32.9699 83.07C32.9269 83.07 32.9269 83.028 32.8849 83.028C32.8419 83.028 32.7999 82.985 32.7579 82.985C32.7149 82.943 32.6729 82.943 32.5879 82.9H32.5449C28.9389 81.1834 25.4089 79.3113 21.9649 77.289C15.6349 73.59 12.2359 70.997 10.4949 69.721C8.92194 68.573 8.58194 67.723 7.17994 67.723H3.95094C2.67694 67.723 2.67694 68.829 2.97394 69.253C4.29094 71.21 5.73594 72.74 7.34994 73.93C7.56294 74.1 12.7459 77.926 19.2899 81.795C19.6289 82.008 19.9689 82.22 20.3509 82.39C26.4269 85.876 31.6529 88.257 31.9509 88.427C34.0319 89.362 36.7509 89.915 39.6409 90H40.2349C40.6179 90 40.9999 90 41.3819 89.957C41.8069 89.957 42.2319 89.915 42.6569 89.872C44.8239 89.66 46.8629 89.15 48.4769 88.427C48.4769 88.427 48.5199 88.427 48.5199 88.385C49.2419 88.045 54.8499 85.451 61.0959 81.795C64.0892 80.0227 67.0225 78.151 69.8909 76.183L73.0349 73.93C74.0549 73.165 75.0319 72.187 75.9669 71.082C78.3469 68.233 80.2579 64.45 80.9799 61.006C80.9799 60.964 80.9799 60.921 81.0229 60.879C81.0649 60.581 81.1499 60.283 81.1929 60.029V59.9C81.2349 59.73 81.2349 59.56 81.2349 59.432C81.2349 59.347 81.3629 58.327 81.4899 56.669V56.499C81.5749 56.456 81.5749 56.287 81.5749 56.16Z" fill="current"/>
<path d="M33.6502 45.829H25.3222C25.2372 45.829 25.1952 45.872 25.1522 45.957C24.9402 49.74 24.2182 53.779 23.1982 57.095C23.1982 57.137 23.1982 57.18 23.2402 57.222C23.2832 57.265 23.3252 57.265 23.3682 57.265H26.2152C26.2992 57.265 26.3422 57.222 26.3422 57.18C27.1492 54.63 27.7872 51.313 28.0422 48.507H30.7612V57.137C30.7612 57.222 30.8462 57.307 30.9312 57.307H33.6502C33.7352 57.307 33.8202 57.222 33.8202 57.137V45.957C33.8202 45.914 33.7352 45.829 33.6502 45.829Z" fill="#232323"/>
</svg>
