<svg  viewBox="0 0 168 474" fill="none" xmlns="http://www.w3.org/2000/svg">
<path d="M120.289 40.4398C120.289 62.5102 102.397 80.4018 80.3268 80.4018C58.2564 80.4018 40.3647 62.5102 40.3647 40.4398C40.3647 18.3694 58.2564 0.477753 80.3268 0.477753C102.397 0.477753 120.289 18.3694 120.289 40.4398ZM50.1518 40.4398C50.1518 57.105 63.6616 70.6148 80.3268 70.6148C96.992 70.6148 110.502 57.105 110.502 40.4398C110.502 23.7746 96.992 10.2648 80.3268 10.2648C63.6616 10.2648 50.1518 23.7746 50.1518 40.4398Z" fill="current"/>
<path d="M73.8663 280.596C74.1157 279.35 75.0908 278.516 76.2996 278.516L81.6944 278.516C83.6645 278.516 85.3029 280.649 84.8923 282.679L47.5398 467.331C47.2884 468.575 46.3144 469.405 45.1078 469.405L40.1191 469.405C38.1516 469.405 36.514 467.278 36.9199 465.249L73.8663 280.596Z" fill="current"/>
<rect width="11.125" height="193.625" rx="3" transform="matrix(-1 -8.74228e-08 -0.155068 -0.987904 116.396 469.799)" fill="current"/>
<rect width="11.125" height="153.888" rx="3" transform="matrix(-1 -8.74228e-08 -0.155068 -0.987904 167.335 250.306)" fill="current"/>
<path d="M16.7444 102.074C16.876 100.89 17.6768 100.004 18.7841 99.818L23.163 99.0808C25.1682 98.7432 27.1484 100.762 26.9168 102.908L11.3562 247.063C11.2099 248.419 10.193 249.364 8.88138 249.364L4.11657 249.364C2.22298 249.364 0.580372 247.447 0.79786 245.491L16.7444 102.074Z" fill="#fff"/>
<path d="M138.559 103.578L81.2939 262.652C80.9765 263.534 79.7296 263.534 79.4121 262.652L22.1404 103.578C21.9058 102.926 22.3887 102.239 23.0813 102.239H137.618C138.311 102.239 138.794 102.926 138.559 103.578Z" stroke="current" stroke-width="11"/>
</svg>
