<svg  viewBox="0 0 159 152" fill="none" xmlns="http://www.w3.org/2000/svg">
<circle cx="79.5" cy="56.5" r="56.5" fill="#D9D9D9"/>
<path d="M0.78125 115.562H12.3047C15.1953 115.562 17.7214 116.253 19.8828 117.633C23.1641 119.768 24.8047 123.01 24.8047 127.359C24.8047 130.771 23.6589 133.557 21.3672 135.719C19.0234 137.906 16.0417 139 12.4219 139H0.78125V137.945H3.90625V116.617H0.78125V115.562ZM12.4219 116.617H9.375V137.945H12.3438C13.5677 137.945 14.5964 137.698 15.4297 137.203C17.5911 135.927 18.6719 132.581 18.6719 127.164C18.6719 124.456 18.4115 122.281 17.8906 120.641C16.9792 117.958 15.1562 116.617 12.4219 116.617ZM51.4453 139H40.9766V137.945H43.75L40.8203 130.445H33.0469L30.2344 137.945H32.4219C32.5781 137.945 32.7214 137.958 32.8516 137.984C33.1901 138.036 33.3594 138.375 33.3594 139H26.1719V137.945H28.6719L37.2266 115.562H40.1172L49.3359 137.945H50.5078C50.6641 137.945 50.8073 137.958 50.9375 137.984C51.276 138.036 51.4453 138.375 51.4453 139ZM40.3516 129.273L36.875 120.289L33.5156 129.273H40.3516ZM72.1094 139.195H71.2891C70.6901 139.195 70.2344 139.091 69.9219 138.883C69.5573 138.622 69.0495 137.659 68.3984 135.992L60.6641 116.617H58.6719V115.562H69.2188V116.617H66.1328L72.8125 133.141L78.7109 116.617H75.5859V115.562H82.2266V116.617H80.2734L72.1094 139.195ZM94.7266 139H83.0078V137.945H86.1328V116.617H83.0078V115.562H94.7266V116.617H91.6016V137.945H93.6719C94.2188 137.997 94.5703 138.349 94.7266 139ZM113.359 116.617V115.562H121.25V116.617H118.125V138.805L115.898 139.195L100.859 121.656V137.945H103.125C103.672 137.997 104.023 138.349 104.18 139H96.0938V137.945H99.2188V116.617H96.0938V115.562H102.695L116.484 131.734V116.617H113.359ZM142.734 137.477C140.26 138.753 137.682 139.391 135 139.391C131.224 139.391 128.177 138.18 125.859 135.758C123.698 133.466 122.617 130.641 122.617 127.281C122.617 124.443 123.438 121.93 125.078 119.742C127.396 116.695 130.742 115.172 135.117 115.172C137.852 115.172 140.352 115.784 142.617 117.008C142.591 116.591 142.604 116.253 142.656 115.992C142.786 115.576 143.19 115.367 143.867 115.367L143.984 123.062H142.617C142.201 121.552 141.719 120.315 141.172 119.352C140 117.346 138.19 116.344 135.742 116.344C131.107 116.37 128.776 119.951 128.75 127.086C128.75 129.273 128.906 131.109 129.219 132.594C130.052 136.344 132.122 138.219 135.43 138.219C136.263 138.219 137.018 138.128 137.695 137.945C140.143 137.268 141.849 135.12 142.812 131.5H144.102V139.195C143.815 139.195 143.581 139.169 143.398 139.117C142.93 139.013 142.708 138.466 142.734 137.477ZM157.383 139H145.664V137.945H148.789V116.617H145.664V115.562H157.383V116.617H154.258V137.945H156.328C156.875 137.997 157.227 138.349 157.383 139Z" fill="black"/>
<path d="M75.4094 16.1661C67.778 16.8756 60.2413 19.8714 54.3444 24.5385C52.2316 26.1941 50.8125 27.55 50.8125 27.8969C50.8125 28.2753 51.0963 28.6064 51.3959 28.6064C51.522 28.6064 52.0896 28.165 52.673 27.6131C57.4663 23.1037 63.5682 19.8714 70.2062 18.2947C73.3439 17.5379 75.2202 17.3486 79.0358 17.3486C82.8357 17.3486 84.712 17.5379 87.8655 18.2947C94.4404 19.8399 100.448 23.0248 105.288 27.5185C105.935 28.1177 106.565 28.6064 106.676 28.6064C106.975 28.6064 107.259 28.2753 107.259 27.8969C107.259 27.5343 105.777 26.131 103.475 24.3335C95.686 18.2474 85.327 15.2358 75.4094 16.1661Z" fill="black"/>
<path d="M77.8845 28.8272C76.9543 29.0795 76.1344 29.8363 75.7717 30.7824C75.5352 31.413 75.5352 31.6969 75.7087 33.7781C75.8979 36.0171 76.1186 36.9158 76.6074 37.4519C76.7808 37.6411 76.8281 38.0038 76.7966 38.7763C76.7493 39.8485 76.7493 39.8485 76.1974 40.0535C75.8663 40.1796 74.7784 40.2585 73.4382 40.2585C71.3254 40.2742 69.8748 40.495 69.1022 40.9049C68.9445 40.9995 67.9669 41.0941 66.9421 41.1257C65.9172 41.1414 64.7504 41.2676 64.3405 41.3779C63.7571 41.5198 63.4417 41.5198 62.7638 41.3622C62.2592 41.2518 60.5563 41.1572 58.4435 41.1257L54.959 41.0941L52.925 40.4319C50.3707 39.5962 49.0305 39.5016 48.3683 40.1166C47.17 41.2045 47.2646 43.002 48.5417 43.8376C49.062 44.1845 51.8055 44.6891 53.2246 44.6891C54.0445 44.6891 54.4702 44.7837 55.0694 45.0832C56.0627 45.5878 58.2386 46.2185 59.4526 46.3604C59.9887 46.4077 61.9596 46.3762 63.8517 46.2658C66.4691 46.1239 67.4466 46.1081 67.9196 46.25C68.2665 46.3446 69.2756 46.4708 70.1586 46.5338L71.7668 46.6284L72.0191 47.4799C72.161 47.9529 72.6498 49.4035 73.1228 50.6964L73.9585 53.0457L73.5958 54.9062C73.0125 57.7443 72.366 59.6995 71.2465 62.0488C70.0798 64.5085 69.1653 66.7474 68.5819 68.5922C67.9512 70.5631 66.5794 72.9282 65.2392 74.363C62.7165 77.0434 61.6758 79.4243 60.4933 85.1005C60.3514 85.7785 60.1464 86.4249 60.0203 86.5353C59.9099 86.6614 59.1373 86.9768 58.3174 87.2606C56.5672 87.844 56.788 87.907 54.6279 86.1726C52.7673 84.6748 49.6612 81.4898 48.321 79.7081L47.3434 78.4152V62.2695C47.3434 46.4708 47.3434 46.1081 47.0438 45.9504C46.6497 45.7455 46.6181 45.7455 46.3343 46.045C46.1136 46.2658 46.082 48.7412 46.082 71.0046C46.082 90.0041 46.1293 95.7591 46.2712 95.901C46.5393 96.1691 111.532 96.1691 111.8 95.901C111.942 95.7591 111.989 90.0041 111.989 71.0046C111.989 48.7412 111.958 46.2658 111.737 46.045C111.453 45.7455 111.421 45.7455 111.027 45.9504C110.728 46.1081 110.728 46.4708 110.728 62.2538V78.3994L109.75 79.7081C107.826 82.2466 102.907 86.961 101.504 87.6075C101.22 87.7336 100.826 87.6548 99.5487 87.1817C97.7197 86.5037 97.9562 86.8822 97.2467 83.508C96.3637 79.2981 95.1023 76.7281 92.753 74.2526C91.9962 73.4643 91.4128 72.6286 90.7191 71.3514C90.1987 70.3581 89.7573 69.5067 89.7573 69.4436C89.7573 68.8445 88.2121 64.9657 86.8088 62.033C85.6893 59.6995 85.0586 57.7286 84.4752 54.8747L84.0968 52.9984L85.4686 49.7976L86.8403 46.5811H88.0229C88.6693 46.5811 89.71 46.4708 90.3091 46.3446C91.2709 46.1239 91.9016 46.1239 95.0708 46.2973C98.4135 46.4708 98.8234 46.455 100.037 46.2027C100.747 46.045 101.945 45.6509 102.671 45.304C103.743 44.7994 104.168 44.6891 104.957 44.6891C106.281 44.6891 109.025 44.1845 109.529 43.8376C110.807 43.002 110.901 41.2045 109.703 40.1166C109.041 39.5016 107.7 39.5962 105.146 40.4319L103.112 41.0941L99.6275 41.1257C97.5778 41.1572 95.8119 41.2518 95.3389 41.3622C94.6609 41.5198 94.2982 41.5041 93.2103 41.2991C92.485 41.1572 91.3182 41.0626 90.6087 41.0784C89.9149 41.0941 89.1896 41.0311 89.0162 40.9207C88.1963 40.495 86.7772 40.2742 84.6329 40.2585C83.2927 40.2585 82.2048 40.1796 81.8736 40.0535C81.3218 39.8485 81.3218 39.8485 81.2745 38.7763C81.2429 38.0038 81.2903 37.6411 81.4637 37.4519C81.9525 36.9158 82.1732 36.0171 82.3624 33.7781C82.5359 31.6811 82.5359 31.413 82.2836 30.7666C81.9052 29.7733 81.0064 29.0007 79.9973 28.7799C79.004 28.5749 78.8463 28.5749 77.8845 28.8272ZM80.4073 30.262C80.5965 30.3882 80.8803 30.7351 81.0222 31.0031C81.2587 31.4604 81.2745 31.7442 81.101 33.7308C80.8803 36.2378 80.6911 36.7266 79.7608 37.1839C79.1932 37.4519 79.0828 37.4677 78.4995 37.2627C77.3327 36.8527 77.1592 36.364 76.8912 32.706C76.7966 31.4604 76.8281 31.3184 77.175 30.8139C77.38 30.4985 77.7899 30.1832 78.0895 30.0728C78.736 29.8363 79.887 29.9309 80.4073 30.262ZM79.9816 39.3282C79.9816 40.1954 80.2654 40.6369 81.1326 41.0941C81.716 41.3937 82.1259 41.4568 84.6329 41.5356C87.2187 41.6144 87.5341 41.6617 88.2594 42.0086C88.9531 42.3555 89.2212 42.387 90.4195 42.3397C91.2709 42.3082 92.28 42.387 93.163 42.5605C94.3455 42.797 94.6451 42.8128 95.3389 42.6393C95.8592 42.4974 97.4044 42.4186 99.6906 42.387L103.254 42.3555L105.256 41.7091C106.36 41.3622 107.606 41.0311 108.031 40.968C108.709 40.8734 108.82 40.9049 109.056 41.236C109.387 41.7248 109.372 42.3713 109.025 42.6866C108.694 42.9862 106.092 43.4277 104.673 43.4277C103.806 43.4277 103.459 43.5223 102.371 44.0584C100.132 45.1305 99.2649 45.2409 94.9604 45.0202C91.6493 44.8467 91.1448 44.8625 90.1514 45.0832C89.4419 45.2567 88.5589 45.3197 87.6129 45.2882C86.8088 45.2724 86.115 45.2882 86.052 45.3355C86.0047 45.3986 85.2478 47.0857 84.3806 49.1196C82.5989 53.2507 82.6935 52.6515 83.4031 55.8838C83.9391 58.375 84.6171 60.4405 85.4213 62.0488C86.4146 64.0197 87.5025 66.6055 88.1332 68.4976C88.9847 71.0834 90.246 73.3539 91.6651 74.8833C94.2351 77.6899 95.1496 79.6608 96.2849 84.9743C96.5056 86.015 96.821 87.0398 96.9786 87.2606C97.1521 87.4971 97.767 87.844 98.4765 88.1278C99.1388 88.3958 99.7221 88.6481 99.7694 88.7112C99.8167 88.7585 99.3122 89.1211 98.6342 89.4995C96.5214 90.7136 96.8052 90.7609 96.206 89.1842C95.9222 88.4274 95.6069 87.4182 95.5123 86.9295C95.3546 86.2199 95.055 85.6681 93.9671 84.1544C92.2012 81.6947 91.0975 79.8657 90.7664 78.8566C90.2303 77.1853 89.5838 76.0028 88.4013 74.5522C87.739 73.7323 86.6984 72.329 86.0677 71.446C85.4213 70.5 84.1599 69.0494 83.0404 67.93C81.4006 66.2902 80.2023 64.8238 79.5716 63.6886C79.2405 63.1052 78.7044 63.2944 78.1841 64.1931C77.6007 65.1865 75.3302 67.788 74.2108 68.7341C73.7693 69.1283 72.8232 70.2477 72.1137 71.2568C71.4042 72.2502 70.3793 73.6219 69.8432 74.2841C68.3769 76.1131 68.2665 76.3024 67.4782 78.3206C66.7529 80.1811 65.4757 82.3097 63.5048 84.9901C62.8741 85.8415 62.6376 86.3145 62.543 86.8822C62.4484 87.5602 62.1015 88.6323 61.5024 90.146L61.3289 90.5717L60.2883 90.0041C59.7207 89.673 59.0112 89.2472 58.7116 89.058L58.1755 88.6954L58.6327 88.522C60.0833 87.9859 60.7456 87.6705 61.0294 87.3709C61.2501 87.1344 61.4866 86.3776 61.7704 85.0532C62.9057 79.7238 63.899 77.5637 66.3902 74.9306C67.6201 73.6377 69.1968 70.9415 69.654 69.349C70.0798 67.8353 71.1204 65.2653 72.2083 62.979C72.7759 61.8123 73.4382 60.2671 73.6747 59.5418C74.2581 57.8705 75.1095 54.1179 75.141 53.2034C75.141 52.6988 74.7942 51.5005 73.927 49.0408C73.2647 47.133 72.6498 45.4932 72.5552 45.3828C72.4291 45.2251 72.0507 45.1936 71.1677 45.2724C70.3163 45.3355 69.5594 45.2882 68.6292 45.0832C67.4151 44.8467 66.9578 44.831 63.6625 45.0202C59.4369 45.2409 58.4751 45.1148 55.8419 44.0426C54.6436 43.5538 54.1391 43.4277 53.3665 43.4277C51.9632 43.4277 49.3616 42.9862 49.0463 42.6866C48.6994 42.3713 48.6836 41.7248 49.0147 41.236C49.2512 40.9049 49.3774 40.8734 50.0081 40.9522C50.4023 40.9995 51.6479 41.3464 52.7831 41.6933L54.8171 42.3555L58.3805 42.387C60.7456 42.4186 62.1804 42.4974 62.6849 42.6393C63.3471 42.8128 63.6467 42.797 64.9396 42.5605C65.933 42.3713 66.8475 42.3082 67.7147 42.3555C68.8814 42.4186 69.0864 42.387 69.7802 42.0244C70.5055 41.646 70.7577 41.6144 73.4224 41.5356C75.9452 41.4568 76.3551 41.3937 76.9385 41.0941C77.8057 40.6369 78.0895 40.1954 78.0895 39.3282V38.6187H79.0355H79.9816V39.3282ZM78.3575 69.9955C78.2629 73.3223 78.1841 73.7796 77.0331 76.665C76.1817 78.8566 76.0398 80.0392 76.4339 81.6632C76.6389 82.4831 76.7493 83.8233 76.8281 86.8664C76.9543 91.3285 77.0489 91.8488 77.9949 93.6463C78.2629 94.1666 78.5152 94.6554 78.5468 94.7342C78.5941 94.8604 74.9834 94.7185 74.7626 94.5766C74.6995 94.545 74.8572 93.9932 75.1095 93.3783C75.8348 91.5177 75.7402 90.2879 74.6838 87.7809C73.6904 85.4158 73.4382 83.3188 73.927 81.0798C74.2738 79.4716 74.2265 78.6201 73.6589 75.104L73.1544 72.0294L73.5643 71.4145C73.8008 71.0834 74.9676 69.7905 76.1501 68.5764C77.9161 66.7632 78.3418 66.4005 78.3891 66.6686C78.4206 66.8578 78.4048 68.3399 78.3575 69.9955ZM83.608 73.007C83.608 76.1131 83.5134 76.8069 82.7251 78.9197C82.1574 80.4491 82.1574 80.4491 82.4097 81.206C82.93 82.7985 82.9773 83.508 82.7408 86.2672C82.4728 89.3576 82.4413 91.4862 82.662 92.0538C82.8827 92.6372 83.4977 92.8737 85.4686 93.1575C86.4461 93.2837 87.3922 93.4886 87.5971 93.599C87.9283 93.7724 87.881 93.804 87.0926 93.9774C85.8312 94.2612 82.93 94.6712 82.1417 94.6712H81.4479L81.038 92.1011C80.0289 85.8731 79.7766 82.3097 80.2023 80.6699C80.3442 80.0865 80.4546 79.0459 80.4546 78.1944C80.4546 76.6177 80.3127 76.3181 79.6347 76.4127C79.2878 76.46 79.272 76.5389 79.1774 78.1944C79.1301 79.1405 79.004 80.3545 78.8936 80.8748C78.531 82.4989 78.9252 87.3236 79.8239 92.6057C79.9973 93.599 80.1077 94.4504 80.0604 94.482C79.9343 94.6239 78.8779 92.7949 78.5468 91.8331C78.2314 90.9186 78.1841 90.351 78.0895 86.7087C77.9949 83.6656 77.9003 82.3254 77.6953 81.5055C77.3169 79.9761 77.4588 78.967 78.3102 76.8857C79.3666 74.3314 79.6662 72.5971 79.6662 69.1283V66.2586L81.6371 68.2926L83.5923 70.3108L83.608 73.007ZM85.5947 72.9439C85.91 73.4012 86.6984 74.4103 87.3133 75.1986C88.6062 76.8069 88.8112 77.1538 89.5207 79.0932C90.0884 80.6226 90.8137 81.8366 92.8476 84.7378C93.8252 86.1253 94.2194 86.8506 94.3297 87.3867C94.4086 87.7967 94.7239 88.8058 95.0235 89.6257C95.3389 90.4456 95.5911 91.1393 95.5911 91.1393C95.5911 91.2182 92.2169 92.5268 90.9083 92.9525L89.3 93.4729L88.8901 93.0314C88.3224 92.4322 87.6129 92.18 85.7051 91.9119C84.7906 91.77 83.9864 91.6281 83.9076 91.5808C83.7026 91.4547 83.7342 89.4838 84.0022 86.3461C84.223 83.5395 84.1599 82.4516 83.6869 81.0798C83.4819 80.4649 83.4977 80.3703 83.9549 79.2351C84.6329 77.5007 84.8694 76.2393 84.8694 74.0476C84.8694 72.9912 84.9009 72.124 84.9325 72.124C84.964 72.124 85.2636 72.5024 85.5947 72.9439ZM72.5079 75.8451C72.9652 78.4467 72.9809 79.3612 72.6656 81.001C72.161 83.5237 72.3975 85.3843 73.5801 88.3958C74.463 90.619 74.4946 91.3443 73.8481 93.0945L73.4066 94.277L72.634 94.2297C70.9627 94.1509 66.5006 92.8579 63.6625 91.6596C63.0633 91.3916 62.5588 91.1708 62.5272 91.1551C62.5115 91.1235 62.7322 90.4298 63.0476 89.6099C63.3471 88.8058 63.6625 87.7967 63.7413 87.3867C63.8517 86.8349 64.2774 86.078 65.3969 84.4698C67.5255 81.4109 67.9354 80.7014 68.708 78.6832C69.2914 77.138 69.5594 76.6808 70.6947 75.2459C71.42 74.3157 72.0349 73.5904 72.0664 73.6219C72.098 73.6535 72.2872 74.6468 72.5079 75.8451ZM49.267 82.7985C53.7607 87.9543 60.5563 92.2903 67.3678 94.3558L68.8657 94.8131H58.1124L47.3434 94.8288V87.6863L47.3592 80.5595L47.6745 80.9537C47.8637 81.1744 48.5733 81.9943 49.267 82.7985ZM110.728 87.7336V94.8288H99.9744L89.2054 94.8131L90.861 94.2928C96.4899 92.5426 101.457 89.7045 105.997 85.6366C107.306 84.4698 109.719 81.884 110.365 80.9537C110.491 80.7802 110.617 80.6383 110.665 80.6383C110.696 80.6383 110.728 83.8233 110.728 87.7336Z" fill="black"/>
<path d="M46.3346 30.4356C45.9562 30.7982 45.9562 37.925 46.3346 38.2876C46.4607 38.4295 46.6657 38.5399 46.7761 38.5399C47.2806 38.5399 47.3437 38.1773 47.3437 34.8031V31.4447H47.8955C48.6051 31.4447 48.9362 30.9401 48.5105 30.4829C48.1636 30.0887 46.6972 30.0571 46.3346 30.4356Z" fill="black"/>
<path d="M51.238 30.4198C50.4338 30.6878 50.1816 30.9401 49.8189 31.7442C49.4878 32.4853 49.5509 33.2579 49.9766 33.9201C50.2604 34.3458 53.2562 36.1906 54.2022 36.5059C54.5491 36.6321 55.3532 37.1682 55.9839 37.7042C57.6552 39.1075 59.1531 39.959 61.2817 40.6842C62.5746 41.1257 63.1895 41.173 63.3314 40.8104C63.5522 40.2428 63.2684 40.0063 61.7074 39.5017C59.768 38.871 58.0809 37.8934 56.7407 36.6478C56.0312 35.9698 55.4793 35.6072 54.8644 35.4022C53.9342 35.0711 51.3483 33.589 51.0172 33.179C50.6073 32.6745 50.8595 31.9965 51.5848 31.6181C51.9159 31.4289 52.0579 31.4762 53.0039 32.1384C53.5715 32.5326 54.6279 33.3367 55.3374 33.9201C56.5042 34.8819 56.8038 35.0553 58.4909 35.623C59.5158 35.9698 61.3448 36.7424 62.5588 37.3574C64.1356 38.1457 65.0816 38.5241 65.8699 38.666C66.4849 38.7764 67.6043 39.1233 68.3612 39.4229C69.118 39.7382 69.8591 39.959 70.0167 39.9274C70.4424 39.8486 70.4424 39.1075 70.0167 38.8237C69.323 38.3822 67.4467 37.7042 66.1853 37.4677C65.4915 37.3416 64.7347 37.0893 64.4824 36.9316C63.7414 36.4113 60.9033 35.1342 59.09 34.5035C57.5448 33.9674 57.1822 33.7782 55.7947 32.6587C53.9657 31.1924 52.7674 30.404 52.2313 30.2936C52.0106 30.2463 51.5691 30.2936 51.238 30.4198Z" fill="black"/>
<path d="M56.7405 30.4354C56.4409 30.7349 56.4252 31.003 56.6774 31.2553C56.9455 31.5233 73.2173 31.5233 73.4853 31.2553C73.7376 31.003 73.7218 30.7349 73.4222 30.4354C73.2015 30.2146 72.2397 30.1831 65.0814 30.1831C57.9231 30.1831 56.9613 30.2146 56.7405 30.4354Z" fill="black"/>
<path d="M84.6492 30.4354C84.3496 30.7349 84.3339 31.003 84.5861 31.2553C84.8542 31.5233 101.126 31.5233 101.394 31.2553C101.646 31.003 101.631 30.7349 101.331 30.4354C101.11 30.2146 100.148 30.1831 92.9901 30.1831C85.8317 30.1831 84.8699 30.2146 84.6492 30.4354Z" fill="black"/>
<path d="M105.651 30.3409C105.13 30.4986 104.121 31.1766 102.229 32.706C100.873 33.7782 100.526 33.9674 98.981 34.5035C98.035 34.8188 96.2533 35.5757 95.0234 36.1748C93.699 36.837 92.4534 37.3416 91.8858 37.452C90.7663 37.6569 88.9215 38.3034 88.212 38.7291C87.8021 38.9814 87.7075 39.1391 87.739 39.4702C87.8021 40.0536 88.1489 40.0536 89.7099 39.4229C90.4667 39.1233 91.602 38.7764 92.2011 38.666C92.9895 38.5241 93.9355 38.1457 95.5122 37.3574C96.7263 36.7424 98.5553 35.9698 99.5802 35.623C101.267 35.0553 101.567 34.8819 102.734 33.9201C103.443 33.3367 104.5 32.5326 105.067 32.1384C105.997 31.492 106.139 31.4446 106.518 31.6181C107.07 31.8704 107.369 32.5957 107.117 33.0687C106.88 33.4786 104.168 35.0869 103.112 35.4338C102.592 35.6072 102.008 36.0171 101.33 36.6478C99.9901 37.8934 98.303 38.871 96.3637 39.5017C94.8027 40.0063 94.5189 40.2428 94.7396 40.8104C94.8815 41.173 95.4965 41.1257 96.7894 40.6842C98.918 39.959 100.416 39.1075 102.087 37.7042C102.718 37.1682 103.522 36.6321 103.869 36.5059C104.831 36.1748 107.811 34.3301 108.11 33.9043C108.993 32.5484 108.126 30.6405 106.47 30.2936C106.25 30.2621 105.887 30.2779 105.651 30.3409Z" fill="black"/>
<path d="M109.561 30.4829C109.135 30.9401 109.467 31.4447 110.176 31.4447H110.728V34.8031C110.728 38.1773 110.791 38.5399 111.296 38.5399C111.406 38.5399 111.611 38.4295 111.737 38.2876C111.958 38.0827 111.989 37.4993 111.989 34.3616C111.989 30.1045 112.021 30.1833 110.665 30.1833C110.05 30.1833 109.766 30.2621 109.561 30.4829Z" fill="black"/>
<path d="M42.7395 39.1232C40.8316 43.2227 39.7122 47.3222 39.2234 51.942C38.4508 59.0372 39.6964 66.3847 42.7395 72.9597C43.2913 74.158 43.4332 74.3314 43.7801 74.3314C44.5527 74.3314 44.5685 73.8742 43.7959 72.2186C42.3768 69.1755 41.1943 65.1549 40.6109 61.4023C40.2325 58.8638 40.2325 53.1876 40.6109 50.6806C41.1943 46.9122 42.3768 42.8916 43.7959 39.8643C44.5685 38.2087 44.5527 37.7515 43.7801 37.7515C43.4332 37.7515 43.2913 37.9249 42.7395 39.1232Z" fill="black"/>
<path d="M113.739 38.0353C113.597 38.2876 113.708 38.6502 114.26 39.8485C115.726 42.9862 116.877 46.928 117.46 50.6806C117.839 53.2034 117.839 58.8796 117.46 61.4023C116.877 65.1549 115.868 68.6237 114.354 72.0294C113.739 73.3854 113.613 73.8111 113.739 74.0477C113.85 74.2526 114.039 74.3315 114.323 74.2999C114.685 74.2526 114.843 74.0319 115.553 72.4394C117.05 69.0967 118.107 65.4387 118.722 61.4496C119.084 59.0215 119.1 53.1403 118.722 50.6806C118.123 46.7073 117.035 42.9074 115.568 39.6436C114.843 38.0511 114.685 37.8303 114.323 37.783C114.039 37.7515 113.85 37.8303 113.739 38.0353Z" fill="black"/>
</svg>
