<svg  viewBox="0 0 156 156" fill="none" xmlns="http://www.w3.org/2000/svg">
<rect x="6.5" y="6.5" width="143" height="143" rx="18.5" stroke="current" stroke-width="13"/>
<path d="M114.505 39.4858C113.287 39.5424 112.14 39.8964 111.121 40.2929H111.107C110.073 40.7036 105.159 42.7709 97.6969 45.9003C90.2345 49.0439 80.549 53.122 70.9342 57.1718C51.7331 65.2573 32.8576 73.2153 32.8576 73.2153L33.0841 73.1303C33.0841 73.1303 31.7814 73.5551 30.422 74.4897C29.7282 74.9428 28.9635 75.5659 28.298 76.5429C27.6325 77.52 27.0944 79.0209 27.2926 80.5644C27.6183 83.184 29.3175 84.7558 30.5353 85.6196C31.7672 86.4975 32.9425 86.9081 32.9425 86.9081H32.9709L50.6711 92.8696C51.464 95.4184 56.0661 110.541 57.1706 114.025C57.8219 116.106 58.4591 117.409 59.2521 118.4C59.6344 118.91 60.0876 119.335 60.6256 119.675C60.838 119.802 61.0646 119.901 61.2912 119.986C61.362 120.029 61.4328 120.043 61.5177 120.057L61.3336 120.015C61.3903 120.029 61.4328 120.071 61.4752 120.085C61.6169 120.128 61.716 120.142 61.9001 120.17C64.7038 121.02 66.9552 119.278 66.9552 119.278L67.0827 119.179L77.5329 109.664L95.049 123.102L95.4455 123.271C99.0988 124.872 102.795 123.979 104.749 122.408C106.717 120.822 107.482 118.797 107.482 118.797L107.609 118.471L121.146 49.1289C121.528 47.4155 121.628 45.8154 121.203 44.2578C120.778 42.7001 119.688 41.2416 118.371 40.4628C117.04 39.6699 115.723 39.4291 114.505 39.4858ZM114.137 46.9199C114.123 47.1464 114.165 47.1181 114.066 47.5571V47.5996L100.656 116.22C100.6 116.319 100.501 116.531 100.232 116.744C99.9484 116.97 99.7218 117.112 98.5465 116.644L77.1222 100.219L64.1798 112.014L66.8986 94.6538C66.8986 94.6538 100.458 63.374 101.902 62.0288C103.347 60.6835 102.865 60.4003 102.865 60.4003C102.965 58.7578 100.685 59.9189 100.685 59.9189L56.5475 87.2622L56.5334 87.1914L35.3781 80.0688V80.0546C35.3639 80.0546 35.3356 80.0405 35.3214 80.0405C35.3356 80.0405 35.4347 79.998 35.4347 79.998L35.548 79.9414L35.6613 79.8989C35.6613 79.8989 54.5509 71.9409 73.7521 63.8554C83.3669 59.8056 93.0524 55.7275 100.501 52.5839C107.949 49.4545 113.457 47.1606 113.769 47.0332C114.066 46.9199 113.924 46.9199 114.137 46.9199Z" fill="current"/>
</svg>
