<svg  viewBox="0 0 156 156" fill="none" xmlns="http://www.w3.org/2000/svg">
<path fill-rule="evenodd" clip-rule="evenodd" d="M125.74 52.765C126.436 50.4864 125.74 48.8121 122.43 48.8121H111.482C108.698 48.8121 107.415 50.2585 106.719 51.8533C106.719 51.8533 101.151 65.1827 93.2638 73.8407C90.7124 76.3471 89.5524 77.1448 88.1605 77.1448C87.4646 77.1448 86.4205 76.3472 86.4205 74.0688V52.765C86.4205 50.0307 85.6496 48.8121 83.3295 48.8121H66.1255C64.3859 48.8121 63.3397 50.0811 63.3397 51.2838C63.3397 53.8759 67.283 54.4736 67.6895 61.7649V77.6006C67.6895 81.0722 67.0512 81.7019 65.6593 81.7019C61.9479 81.7019 52.9198 68.3131 47.5653 52.9927C46.516 50.015 45.4635 48.8121 42.6655 48.8121H31.7175C28.5895 48.8121 27.9639 50.2585 27.9639 51.8533C27.9639 54.7016 31.6755 68.8283 45.2458 87.5119C54.2925 100.271 67.0389 107.188 78.6374 107.188C85.5966 107.188 86.4576 105.652 86.4576 103.006V93.362C86.4576 90.2898 87.1169 89.6764 89.3206 89.6764C90.9442 89.6764 93.7279 90.4741 100.223 96.6261C107.646 103.917 108.87 107.188 113.045 107.188H123.994C127.121 107.188 128.685 105.652 127.783 102.62C126.796 99.5986 123.252 95.215 118.549 90.0183C115.997 87.0562 112.17 83.8664 111.01 82.271C109.386 80.2208 109.85 79.3093 111.01 77.4867C111.01 77.4867 124.349 59.0307 125.74 52.765Z" fill="current"/>
<rect x="6.5" y="6.5" width="143" height="143" rx="23.5" stroke="current" stroke-width="13"/>
</svg>